<?xml version="1.0" encoding="UTF-8" standalone="no"?>
<!-- Created with Inkscape (http://www.inkscape.org/) -->
<svg xmlns:svg="http://www.w3.org/2000/svg" xmlns="http://www.w3.org/2000/svg" version="1.0" width="32" height="32" id="svg4783">
  <defs id="defs4785"/>
  <g transform="translate(-312.57144,-459.21933)" id="layer1">
    <path d="M 29.356696 16.460575 A 14.377973 14.377973 0 1 1  0.60075092,16.460575 A 14.377973 14.377973 0 1 1  29.356696 16.460575 z" transform="matrix(1.0754154,0,0,1.0754153,312.46309,457.51738)" style="opacity:1;fill:#ffff38;fill-opacity:1;stroke:#000000;stroke-width:1;stroke-linecap:butt;stroke-linejoin:round;stroke-miterlimit:4;stroke-dasharray:none;stroke-dashoffset:0;stroke-opacity:1" id="path4801"/>
    <g transform="translate(0.640799,0)" id="g4807">
      <path d="M 12.33542 10.693367 A 2.3229036 3.244055 0 1 1  7.6896124,10.693367 A 2.3229036 3.244055 0 1 1  12.33542 10.693367 z" transform="translate(312.69159,459.25938)" style="opacity:1;fill:#000000;fill-opacity:1;stroke:none;stroke-width:1;stroke-linecap:butt;stroke-linejoin:round;stroke-miterlimit:4;stroke-dasharray:none;stroke-dashoffset:0;stroke-opacity:1" id="path4803"/>
      <path d="M 12.33542 10.693367 A 2.3229036 3.244055 0 1 1  7.6896124,10.693367 A 2.3229036 3.244055 0 1 1  12.33542 10.693367 z" transform="translate(323.14466,459.25938)" style="opacity:1;fill:#000000;fill-opacity:1;stroke:none;stroke-width:1;stroke-linecap:butt;stroke-linejoin:round;stroke-miterlimit:4;stroke-dasharray:none;stroke-dashoffset:0;stroke-opacity:1" id="path4805"/>
    </g>
    <path d="M 18.203038,2.4487982 A 14.377973,14.377973 0 0 1 18.203038,30.472352" transform="matrix(0,0.8513825,-0.8513824,0,342.58568,462.43269)" style="opacity:1;fill:none;fill-opacity:1;stroke:#000000;stroke-width:1.32029986;stroke-linecap:round;stroke-linejoin:round;stroke-miterlimit:4;stroke-dasharray:none;stroke-dashoffset:0;stroke-opacity:1" id="path4811"/>
  </g>
</svg>