<?xml version="1.0" encoding="UTF-8" standalone="no"?>
<svg xmlns="http://www.w3.org/2000/svg"
     xmlns:xlink="http://www.w3.org/1999/xlink"
     width="1215px" height="960px" viewBox="0 0 1215 960">
<title>glps_renderer figure</title>
<desc>
Creator: GL2PS 1.3.8, (C) 1999-2012 C. Geuzaine
For: Octave
CreationDate: Thu Jan  7 17:32:22 2016
</desc>
<defs>
</defs>
<g shape-rendering="crispEdges">
<polygon fill="#ffffff" points="1099.57,854.4 1099.57,72 1099.57,854.4"/>
<polygon fill="#ffffff" points="1099.57,72 1099.57,72 1099.57,854.4"/>
<polygon fill="#ffffff" points="157.95,72 1099.57,72 157.95,72"/>
<polygon fill="#ffffff" points="1099.57,72 1099.57,72 157.95,72"/>
<polygon fill="#ffffff" points="157.95,854.4 1099.57,854.4 157.95,72"/>
<polygon fill="#ffffff" points="1099.57,854.4 1099.57,72 157.95,72"/>
<polyline fill="none" stroke="#000000" stroke-width="0.5" stroke-dasharray="16,0" points="157.95,854.4 1099.57,854.4"/>
<polyline fill="none" stroke="#000000" stroke-width="0.5" stroke-dasharray="16,0" points="157.95,72 1099.57,72"/>
<polyline fill="none" stroke="#000000" stroke-width="0.5" stroke-dasharray="16,0" points="157.95,72 1099.57,72"/>
<polyline fill="none" stroke="#000000" stroke-width="0.5" stroke-dasharray="16,0" points="157.95,854.4 1099.57,854.4"/>
<polyline fill="none" stroke="#000000" stroke-width="0.5" stroke-dasharray="16,0" points="157.95,854.4 157.95,72"/>
<polyline fill="none" stroke="#000000" stroke-width="0.5" stroke-dasharray="16,0" points="1099.57,854.4 1099.57,72"/>
<polyline fill="none" stroke="#000000" stroke-width="0.5" stroke-dasharray="16,0" points="1099.57,854.4 1099.57,72"/>
<polyline fill="none" stroke="#000000" stroke-width="0.5" stroke-dasharray="16,0" points="157.95,854.4 157.95,72 157.95,72"/>
<polyline fill="none" stroke="#000000" stroke-width="0.5" stroke-dasharray="16,0" points="1099.57,72 1099.57,72"/>
<polyline fill="none" stroke="#000000" stroke-width="0.5" stroke-dasharray="16,0" points="1099.57,854.4 1099.57,854.4"/>
<polyline fill="none" stroke="#000000" stroke-width="0.5" stroke-dasharray="16,0" points="157.95,854.4 157.95,854.4 157.95,844.979"/>
<polyline fill="none" stroke="#000000" stroke-width="0.5" stroke-dasharray="16,0" points="157.95,72 157.95,81.421"/>
<polyline fill="none" stroke="#000000" stroke-width="0.5" stroke-dasharray="16,0" points="314.888,854.4 314.888,844.979"/>
<polyline fill="none" stroke="#000000" stroke-width="0.5" stroke-dasharray="16,0" points="314.888,72 314.888,81.421"/>
<polyline fill="none" stroke="#000000" stroke-width="0.5" stroke-dasharray="16,0" points="471.825,854.4 471.825,844.979"/>
<polyline fill="none" stroke="#000000" stroke-width="0.5" stroke-dasharray="16,0" points="471.825,72 471.825,81.421"/>
<polyline fill="none" stroke="#000000" stroke-width="0.5" stroke-dasharray="16,0" points="628.763,854.4 628.763,844.979"/>
<polyline fill="none" stroke="#000000" stroke-width="0.5" stroke-dasharray="16,0" points="628.763,72 628.763,81.421"/>
<polyline fill="none" stroke="#000000" stroke-width="0.5" stroke-dasharray="16,0" points="785.7,854.4 785.7,844.979"/>
<polyline fill="none" stroke="#000000" stroke-width="0.5" stroke-dasharray="16,0" points="785.7,72 785.7,81.421"/>
<polyline fill="none" stroke="#000000" stroke-width="0.5" stroke-dasharray="16,0" points="942.638,854.4 942.638,844.979"/>
<polyline fill="none" stroke="#000000" stroke-width="0.5" stroke-dasharray="16,0" points="942.638,72 942.638,81.421"/>
<polyline fill="none" stroke="#000000" stroke-width="0.5" stroke-dasharray="16,0" points="1099.57,854.4 1099.57,844.979"/>
<polyline fill="none" stroke="#000000" stroke-width="0.5" stroke-dasharray="16,0" points="1099.57,72 1099.57,81.421"/>
<text fill="#000000" x="157.95" y="859.403" font-size="10" text-anchor="middle" baseline-shift="-10" font-family="Helvetica">1e+0</text>
<text fill="#000000" x="314.888" y="859.403" font-size="10" text-anchor="middle" baseline-shift="-10" font-family="Helvetica">1e+1</text>
<text fill="#000000" x="471.825" y="859.403" font-size="10" text-anchor="middle" baseline-shift="-10" font-family="Helvetica">1e+2</text>
<text fill="#000000" x="628.763" y="859.403" font-size="10" text-anchor="middle" baseline-shift="-10" font-family="Helvetica">1e+3</text>
<text fill="#000000" x="785.7" y="859.403" font-size="10" text-anchor="middle" baseline-shift="-10" font-family="Helvetica">1e+4</text>
<text fill="#000000" x="942.638" y="859.403" font-size="10" text-anchor="middle" baseline-shift="-10" font-family="Helvetica">1e+5</text>
<text fill="#000000" x="1099.57" y="859.403" font-size="10" text-anchor="middle" baseline-shift="-10" font-family="Helvetica">1e+6</text>
<polyline fill="none" stroke="#000000" stroke-width="0.5" stroke-dasharray="16,0" points="205.193,854.4 205.193,849.69"/>
<polyline fill="none" stroke="#000000" stroke-width="0.5" stroke-dasharray="16,0" points="205.193,72 205.193,76.7106"/>
<polyline fill="none" stroke="#000000" stroke-width="0.5" stroke-dasharray="16,0" points="232.828,854.4 232.828,849.69"/>
<polyline fill="none" stroke="#000000" stroke-width="0.5" stroke-dasharray="16,0" points="232.828,72 232.828,76.7106"/>
<polyline fill="none" stroke="#000000" stroke-width="0.5" stroke-dasharray="16,0" points="252.436,854.4 252.436,849.69"/>
<polyline fill="none" stroke="#000000" stroke-width="0.5" stroke-dasharray="16,0" points="252.436,72 252.436,76.7106"/>
<polyline fill="none" stroke="#000000" stroke-width="0.5" stroke-dasharray="16,0" points="267.645,854.4 267.645,849.69"/>
<polyline fill="none" stroke="#000000" stroke-width="0.5" stroke-dasharray="16,0" points="267.645,72 267.645,76.7106"/>
<polyline fill="none" stroke="#000000" stroke-width="0.5" stroke-dasharray="16,0" points="280.071,854.4 280.071,849.69"/>
<polyline fill="none" stroke="#000000" stroke-width="0.5" stroke-dasharray="16,0" points="280.071,72 280.071,76.7106"/>
<polyline fill="none" stroke="#000000" stroke-width="0.5" stroke-dasharray="16,0" points="290.578,854.4 290.578,849.69"/>
<polyline fill="none" stroke="#000000" stroke-width="0.5" stroke-dasharray="16,0" points="290.578,72 290.578,76.7106"/>
<polyline fill="none" stroke="#000000" stroke-width="0.5" stroke-dasharray="16,0" points="299.679,854.4 299.679,849.69"/>
<polyline fill="none" stroke="#000000" stroke-width="0.5" stroke-dasharray="16,0" points="299.679,72 299.679,76.7106"/>
<polyline fill="none" stroke="#000000" stroke-width="0.5" stroke-dasharray="16,0" points="307.706,854.4 307.706,849.69"/>
<polyline fill="none" stroke="#000000" stroke-width="0.5" stroke-dasharray="16,0" points="307.706,72 307.706,76.7106"/>
<polyline fill="none" stroke="#000000" stroke-width="0.5" stroke-dasharray="16,0" points="362.13,854.4 362.13,849.69"/>
<polyline fill="none" stroke="#000000" stroke-width="0.5" stroke-dasharray="16,0" points="362.13,72 362.13,76.7106"/>
<polyline fill="none" stroke="#000000" stroke-width="0.5" stroke-dasharray="16,0" points="389.766,854.4 389.766,849.69"/>
<polyline fill="none" stroke="#000000" stroke-width="0.5" stroke-dasharray="16,0" points="389.766,72 389.766,76.7106"/>
<polyline fill="none" stroke="#000000" stroke-width="0.5" stroke-dasharray="16,0" points="409.373,854.4 409.373,849.69"/>
<polyline fill="none" stroke="#000000" stroke-width="0.5" stroke-dasharray="16,0" points="409.373,72 409.373,76.7106"/>
<polyline fill="none" stroke="#000000" stroke-width="0.5" stroke-dasharray="16,0" points="424.582,854.4 424.582,849.69"/>
<polyline fill="none" stroke="#000000" stroke-width="0.5" stroke-dasharray="16,0" points="424.582,72 424.582,76.7106"/>
<polyline fill="none" stroke="#000000" stroke-width="0.5" stroke-dasharray="16,0" points="437.009,854.4 437.009,849.69"/>
<polyline fill="none" stroke="#000000" stroke-width="0.5" stroke-dasharray="16,0" points="437.009,72 437.009,76.7106"/>
<polyline fill="none" stroke="#000000" stroke-width="0.5" stroke-dasharray="16,0" points="447.515,854.4 447.515,849.69"/>
<polyline fill="none" stroke="#000000" stroke-width="0.5" stroke-dasharray="16,0" points="447.515,72 447.515,76.7106"/>
<polyline fill="none" stroke="#000000" stroke-width="0.5" stroke-dasharray="16,0" points="456.616,854.4 456.616,849.69"/>
<polyline fill="none" stroke="#000000" stroke-width="0.5" stroke-dasharray="16,0" points="456.616,72 456.616,76.7106"/>
<polyline fill="none" stroke="#000000" stroke-width="0.5" stroke-dasharray="16,0" points="464.644,854.4 464.644,849.69"/>
<polyline fill="none" stroke="#000000" stroke-width="0.5" stroke-dasharray="16,0" points="464.644,72 464.644,76.7106"/>
<polyline fill="none" stroke="#000000" stroke-width="0.5" stroke-dasharray="16,0" points="519.068,854.4 519.068,849.69"/>
<polyline fill="none" stroke="#000000" stroke-width="0.5" stroke-dasharray="16,0" points="519.068,72 519.068,76.7106"/>
<polyline fill="none" stroke="#000000" stroke-width="0.5" stroke-dasharray="16,0" points="546.703,854.4 546.703,849.69"/>
<polyline fill="none" stroke="#000000" stroke-width="0.5" stroke-dasharray="16,0" points="546.703,72 546.703,76.7106"/>
<polyline fill="none" stroke="#000000" stroke-width="0.5" stroke-dasharray="16,0" points="566.311,854.4 566.311,849.69"/>
<polyline fill="none" stroke="#000000" stroke-width="0.5" stroke-dasharray="16,0" points="566.311,72 566.311,76.7106"/>
<polyline fill="none" stroke="#000000" stroke-width="0.5" stroke-dasharray="16,0" points="581.52,854.4 581.52,849.69"/>
<polyline fill="none" stroke="#000000" stroke-width="0.5" stroke-dasharray="16,0" points="581.52,72 581.52,76.7106"/>
<polyline fill="none" stroke="#000000" stroke-width="0.5" stroke-dasharray="16,0" points="593.946,854.4 593.946,849.69"/>
<polyline fill="none" stroke="#000000" stroke-width="0.5" stroke-dasharray="16,0" points="593.946,72 593.946,76.7106"/>
<polyline fill="none" stroke="#000000" stroke-width="0.5" stroke-dasharray="16,0" points="604.453,854.4 604.453,849.69"/>
<polyline fill="none" stroke="#000000" stroke-width="0.5" stroke-dasharray="16,0" points="604.453,72 604.453,76.7106"/>
<polyline fill="none" stroke="#000000" stroke-width="0.5" stroke-dasharray="16,0" points="613.554,854.4 613.554,849.69"/>
<polyline fill="none" stroke="#000000" stroke-width="0.5" stroke-dasharray="16,0" points="613.554,72 613.554,76.7106"/>
<polyline fill="none" stroke="#000000" stroke-width="0.5" stroke-dasharray="16,0" points="621.581,854.4 621.581,849.69"/>
<polyline fill="none" stroke="#000000" stroke-width="0.5" stroke-dasharray="16,0" points="621.581,72 621.581,76.7106"/>
<polyline fill="none" stroke="#000000" stroke-width="0.5" stroke-dasharray="16,0" points="676.005,854.4 676.005,849.69"/>
<polyline fill="none" stroke="#000000" stroke-width="0.5" stroke-dasharray="16,0" points="676.005,72 676.005,76.7106"/>
<polyline fill="none" stroke="#000000" stroke-width="0.5" stroke-dasharray="16,0" points="703.641,854.4 703.641,849.69"/>
<polyline fill="none" stroke="#000000" stroke-width="0.5" stroke-dasharray="16,0" points="703.641,72 703.641,76.7106"/>
<polyline fill="none" stroke="#000000" stroke-width="0.5" stroke-dasharray="16,0" points="723.248,854.4 723.248,849.69"/>
<polyline fill="none" stroke="#000000" stroke-width="0.5" stroke-dasharray="16,0" points="723.248,72 723.248,76.7106"/>
<polyline fill="none" stroke="#000000" stroke-width="0.5" stroke-dasharray="16,0" points="738.457,854.4 738.457,849.69"/>
<polyline fill="none" stroke="#000000" stroke-width="0.5" stroke-dasharray="16,0" points="738.457,72 738.457,76.7106"/>
<polyline fill="none" stroke="#000000" stroke-width="0.5" stroke-dasharray="16,0" points="750.884,854.4 750.884,849.69"/>
<polyline fill="none" stroke="#000000" stroke-width="0.5" stroke-dasharray="16,0" points="750.884,72 750.884,76.7106"/>
<polyline fill="none" stroke="#000000" stroke-width="0.5" stroke-dasharray="16,0" points="761.39,854.4 761.39,849.69"/>
<polyline fill="none" stroke="#000000" stroke-width="0.5" stroke-dasharray="16,0" points="761.39,72 761.39,76.7106"/>
<polyline fill="none" stroke="#000000" stroke-width="0.5" stroke-dasharray="16,0" points="770.491,854.4 770.491,849.69"/>
<polyline fill="none" stroke="#000000" stroke-width="0.5" stroke-dasharray="16,0" points="770.491,72 770.491,76.7106"/>
<polyline fill="none" stroke="#000000" stroke-width="0.5" stroke-dasharray="16,0" points="778.519,854.4 778.519,849.69"/>
<polyline fill="none" stroke="#000000" stroke-width="0.5" stroke-dasharray="16,0" points="778.519,72 778.519,76.7106"/>
<polyline fill="none" stroke="#000000" stroke-width="0.5" stroke-dasharray="16,0" points="832.943,854.4 832.943,849.69"/>
<polyline fill="none" stroke="#000000" stroke-width="0.5" stroke-dasharray="16,0" points="832.943,72 832.943,76.7106"/>
<polyline fill="none" stroke="#000000" stroke-width="0.5" stroke-dasharray="16,0" points="860.578,854.4 860.578,849.69"/>
<polyline fill="none" stroke="#000000" stroke-width="0.5" stroke-dasharray="16,0" points="860.578,72 860.578,76.7106"/>
<polyline fill="none" stroke="#000000" stroke-width="0.5" stroke-dasharray="16,0" points="880.186,854.4 880.186,849.69"/>
<polyline fill="none" stroke="#000000" stroke-width="0.5" stroke-dasharray="16,0" points="880.186,72 880.186,76.7106"/>
<polyline fill="none" stroke="#000000" stroke-width="0.5" stroke-dasharray="16,0" points="895.395,854.4 895.395,849.69"/>
<polyline fill="none" stroke="#000000" stroke-width="0.5" stroke-dasharray="16,0" points="895.395,72 895.395,76.7106"/>
<polyline fill="none" stroke="#000000" stroke-width="0.5" stroke-dasharray="16,0" points="907.821,854.4 907.821,849.69"/>
<polyline fill="none" stroke="#000000" stroke-width="0.5" stroke-dasharray="16,0" points="907.821,72 907.821,76.7106"/>
<polyline fill="none" stroke="#000000" stroke-width="0.5" stroke-dasharray="16,0" points="918.328,854.4 918.328,849.69"/>
<polyline fill="none" stroke="#000000" stroke-width="0.5" stroke-dasharray="16,0" points="918.328,72 918.328,76.7106"/>
<polyline fill="none" stroke="#000000" stroke-width="0.5" stroke-dasharray="16,0" points="927.429,854.4 927.429,849.69"/>
<polyline fill="none" stroke="#000000" stroke-width="0.5" stroke-dasharray="16,0" points="927.429,72 927.429,76.7106"/>
<polyline fill="none" stroke="#000000" stroke-width="0.5" stroke-dasharray="16,0" points="935.456,854.4 935.456,849.69"/>
<polyline fill="none" stroke="#000000" stroke-width="0.5" stroke-dasharray="16,0" points="935.456,72 935.456,76.7106"/>
<polyline fill="none" stroke="#000000" stroke-width="0.5" stroke-dasharray="16,0" points="989.88,854.4 989.88,849.69"/>
<polyline fill="none" stroke="#000000" stroke-width="0.5" stroke-dasharray="16,0" points="989.88,72 989.88,76.7106"/>
<polyline fill="none" stroke="#000000" stroke-width="0.5" stroke-dasharray="16,0" points="1017.52,854.4 1017.52,849.69"/>
<polyline fill="none" stroke="#000000" stroke-width="0.5" stroke-dasharray="16,0" points="1017.52,72 1017.52,76.7106"/>
<polyline fill="none" stroke="#000000" stroke-width="0.5" stroke-dasharray="16,0" points="1037.12,854.4 1037.12,849.69"/>
<polyline fill="none" stroke="#000000" stroke-width="0.5" stroke-dasharray="16,0" points="1037.12,72 1037.12,76.7106"/>
<polyline fill="none" stroke="#000000" stroke-width="0.5" stroke-dasharray="16,0" points="1052.33,854.4 1052.33,849.69"/>
<polyline fill="none" stroke="#000000" stroke-width="0.5" stroke-dasharray="16,0" points="1052.33,72 1052.33,76.7106"/>
<polyline fill="none" stroke="#000000" stroke-width="0.5" stroke-dasharray="16,0" points="1064.76,854.4 1064.76,849.69"/>
<polyline fill="none" stroke="#000000" stroke-width="0.5" stroke-dasharray="16,0" points="1064.76,72 1064.76,76.7106"/>
<polyline fill="none" stroke="#000000" stroke-width="0.5" stroke-dasharray="16,0" points="1075.27,854.4 1075.27,849.69"/>
<polyline fill="none" stroke="#000000" stroke-width="0.5" stroke-dasharray="16,0" points="1075.27,72 1075.27,76.7106"/>
<polyline fill="none" stroke="#000000" stroke-width="0.5" stroke-dasharray="16,0" points="1084.37,854.4 1084.37,849.69"/>
<polyline fill="none" stroke="#000000" stroke-width="0.5" stroke-dasharray="16,0" points="1084.37,72 1084.37,76.7106"/>
<polyline fill="none" stroke="#000000" stroke-width="0.5" stroke-dasharray="16,0" points="1092.39,854.4 1092.39,849.69"/>
<polyline fill="none" stroke="#000000" stroke-width="0.5" stroke-dasharray="16,0" points="1092.39,72 1092.39,76.7106"/>
<polyline fill="none" stroke="#000000" stroke-width="0.5" stroke-dasharray="16,0" points="157.95,854.4 167.363,854.4"/>
<polyline fill="none" stroke="#000000" stroke-width="0.5" stroke-dasharray="16,0" points="1099.57,854.4 1090.16,854.4"/>
<polyline fill="none" stroke="#000000" stroke-width="0.5" stroke-dasharray="16,0" points="157.95,658.8 167.363,658.8"/>
<polyline fill="none" stroke="#000000" stroke-width="0.5" stroke-dasharray="16,0" points="1099.57,658.8 1090.16,658.8"/>
<polyline fill="none" stroke="#000000" stroke-width="0.5" stroke-dasharray="16,0" points="157.95,463.2 167.363,463.2"/>
<polyline fill="none" stroke="#000000" stroke-width="0.5" stroke-dasharray="16,0" points="1099.57,463.2 1090.16,463.2"/>
<polyline fill="none" stroke="#000000" stroke-width="0.5" stroke-dasharray="16,0" points="157.95,267.6 167.363,267.6"/>
<polyline fill="none" stroke="#000000" stroke-width="0.5" stroke-dasharray="16,0" points="1099.57,267.6 1090.16,267.6"/>
<polyline fill="none" stroke="#000000" stroke-width="0.5" stroke-dasharray="16,0" points="157.95,72 167.363,72"/>
<polyline fill="none" stroke="#000000" stroke-width="0.5" stroke-dasharray="16,0" points="1099.57,72 1090.16,72"/>
<text fill="#000000" x="152.952" y="854.4" font-size="10" text-anchor="end" baseline-shift="-5" font-family="Helvetica">1e+1</text>
<text fill="#000000" x="152.952" y="658.8" font-size="10" text-anchor="end" baseline-shift="-5" font-family="Helvetica">1e+2</text>
<text fill="#000000" x="152.952" y="463.2" font-size="10" text-anchor="end" baseline-shift="-5" font-family="Helvetica">1e+3</text>
<text fill="#000000" x="152.952" y="267.6" font-size="10" text-anchor="end" baseline-shift="-5" font-family="Helvetica">1e+4</text>
<text fill="#000000" x="152.952" y="72" font-size="10" text-anchor="end" baseline-shift="-5" font-family="Helvetica">1e+5</text>
<polyline fill="none" stroke="#000000" stroke-width="0.5" stroke-dasharray="16,0" points="157.95,795.519 162.656,795.519"/>
<polyline fill="none" stroke="#000000" stroke-width="0.5" stroke-dasharray="16,0" points="1099.57,795.519 1094.87,795.519"/>
<polyline fill="none" stroke="#000000" stroke-width="0.5" stroke-dasharray="16,0" points="157.95,761.075 162.656,761.075"/>
<polyline fill="none" stroke="#000000" stroke-width="0.5" stroke-dasharray="16,0" points="1099.57,761.075 1094.87,761.075"/>
<polyline fill="none" stroke="#000000" stroke-width="0.5" stroke-dasharray="16,0" points="157.95,736.637 162.656,736.637"/>
<polyline fill="none" stroke="#000000" stroke-width="0.5" stroke-dasharray="16,0" points="1099.57,736.637 1094.87,736.637"/>
<polyline fill="none" stroke="#000000" stroke-width="0.5" stroke-dasharray="16,0" points="157.95,717.682 162.656,717.682"/>
<polyline fill="none" stroke="#000000" stroke-width="0.5" stroke-dasharray="16,0" points="1099.57,717.682 1094.87,717.682"/>
<polyline fill="none" stroke="#000000" stroke-width="0.5" stroke-dasharray="16,0" points="157.95,702.194 162.656,702.194"/>
<polyline fill="none" stroke="#000000" stroke-width="0.5" stroke-dasharray="16,0" points="1099.57,702.194 1094.87,702.194"/>
<polyline fill="none" stroke="#000000" stroke-width="0.5" stroke-dasharray="16,0" points="157.95,689.099 162.656,689.099"/>
<polyline fill="none" stroke="#000000" stroke-width="0.5" stroke-dasharray="16,0" points="1099.57,689.099 1094.87,689.099"/>
<polyline fill="none" stroke="#000000" stroke-width="0.5" stroke-dasharray="16,0" points="157.95,677.756 162.656,677.756"/>
<polyline fill="none" stroke="#000000" stroke-width="0.5" stroke-dasharray="16,0" points="1099.57,677.756 1094.87,677.756"/>
<polyline fill="none" stroke="#000000" stroke-width="0.5" stroke-dasharray="16,0" points="157.95,667.75 162.656,667.75"/>
<polyline fill="none" stroke="#000000" stroke-width="0.5" stroke-dasharray="16,0" points="1099.57,667.75 1094.87,667.75"/>
<polyline fill="none" stroke="#000000" stroke-width="0.5" stroke-dasharray="16,0" points="157.95,599.919 162.656,599.919"/>
<polyline fill="none" stroke="#000000" stroke-width="0.5" stroke-dasharray="16,0" points="1099.57,599.919 1094.87,599.919"/>
<polyline fill="none" stroke="#000000" stroke-width="0.5" stroke-dasharray="16,0" points="157.95,565.475 162.656,565.475"/>
<polyline fill="none" stroke="#000000" stroke-width="0.5" stroke-dasharray="16,0" points="1099.57,565.475 1094.87,565.475"/>
<polyline fill="none" stroke="#000000" stroke-width="0.5" stroke-dasharray="16,0" points="157.95,541.037 162.656,541.037"/>
<polyline fill="none" stroke="#000000" stroke-width="0.5" stroke-dasharray="16,0" points="1099.57,541.037 1094.87,541.037"/>
<polyline fill="none" stroke="#000000" stroke-width="0.5" stroke-dasharray="16,0" points="157.95,522.081 162.656,522.081"/>
<polyline fill="none" stroke="#000000" stroke-width="0.5" stroke-dasharray="16,0" points="1099.57,522.081 1094.87,522.081"/>
<polyline fill="none" stroke="#000000" stroke-width="0.5" stroke-dasharray="16,0" points="157.95,506.594 162.656,506.594"/>
<polyline fill="none" stroke="#000000" stroke-width="0.5" stroke-dasharray="16,0" points="1099.57,506.594 1094.87,506.594"/>
<polyline fill="none" stroke="#000000" stroke-width="0.5" stroke-dasharray="16,0" points="157.95,493.499 162.656,493.499"/>
<polyline fill="none" stroke="#000000" stroke-width="0.5" stroke-dasharray="16,0" points="1099.57,493.499 1094.87,493.499"/>
<polyline fill="none" stroke="#000000" stroke-width="0.5" stroke-dasharray="16,0" points="157.95,482.156 162.656,482.156"/>
<polyline fill="none" stroke="#000000" stroke-width="0.5" stroke-dasharray="16,0" points="1099.57,482.156 1094.87,482.156"/>
<polyline fill="none" stroke="#000000" stroke-width="0.5" stroke-dasharray="16,0" points="157.95,472.15 162.656,472.15"/>
<polyline fill="none" stroke="#000000" stroke-width="0.5" stroke-dasharray="16,0" points="1099.57,472.15 1094.87,472.15"/>
<polyline fill="none" stroke="#000000" stroke-width="0.5" stroke-dasharray="16,0" points="157.95,404.319 162.656,404.319"/>
<polyline fill="none" stroke="#000000" stroke-width="0.5" stroke-dasharray="16,0" points="1099.57,404.319 1094.87,404.319"/>
<polyline fill="none" stroke="#000000" stroke-width="0.5" stroke-dasharray="16,0" points="157.95,369.875 162.656,369.875"/>
<polyline fill="none" stroke="#000000" stroke-width="0.5" stroke-dasharray="16,0" points="1099.57,369.875 1094.87,369.875"/>
<polyline fill="none" stroke="#000000" stroke-width="0.5" stroke-dasharray="16,0" points="157.95,345.437 162.656,345.437"/>
<polyline fill="none" stroke="#000000" stroke-width="0.5" stroke-dasharray="16,0" points="1099.57,345.437 1094.87,345.437"/>
<polyline fill="none" stroke="#000000" stroke-width="0.5" stroke-dasharray="16,0" points="157.95,326.481 162.656,326.481"/>
<polyline fill="none" stroke="#000000" stroke-width="0.5" stroke-dasharray="16,0" points="1099.57,326.481 1094.87,326.481"/>
<polyline fill="none" stroke="#000000" stroke-width="0.5" stroke-dasharray="16,0" points="157.95,310.994 162.656,310.994"/>
<polyline fill="none" stroke="#000000" stroke-width="0.5" stroke-dasharray="16,0" points="1099.57,310.994 1094.87,310.994"/>
<polyline fill="none" stroke="#000000" stroke-width="0.5" stroke-dasharray="16,0" points="157.95,297.899 162.656,297.899"/>
<polyline fill="none" stroke="#000000" stroke-width="0.5" stroke-dasharray="16,0" points="1099.57,297.899 1094.87,297.899"/>
<polyline fill="none" stroke="#000000" stroke-width="0.5" stroke-dasharray="16,0" points="157.95,286.556 162.656,286.556"/>
<polyline fill="none" stroke="#000000" stroke-width="0.5" stroke-dasharray="16,0" points="1099.57,286.556 1094.87,286.556"/>
<polyline fill="none" stroke="#000000" stroke-width="0.5" stroke-dasharray="16,0" points="157.95,276.55 162.656,276.55"/>
<polyline fill="none" stroke="#000000" stroke-width="0.5" stroke-dasharray="16,0" points="1099.57,276.55 1094.87,276.55"/>
<polyline fill="none" stroke="#000000" stroke-width="0.5" stroke-dasharray="16,0" points="157.95,208.719 162.656,208.719"/>
<polyline fill="none" stroke="#000000" stroke-width="0.5" stroke-dasharray="16,0" points="1099.57,208.719 1094.87,208.719"/>
<polyline fill="none" stroke="#000000" stroke-width="0.5" stroke-dasharray="16,0" points="157.95,174.275 162.656,174.275"/>
<polyline fill="none" stroke="#000000" stroke-width="0.5" stroke-dasharray="16,0" points="1099.57,174.275 1094.87,174.275"/>
<polyline fill="none" stroke="#000000" stroke-width="0.5" stroke-dasharray="16,0" points="157.95,149.837 162.656,149.837"/>
<polyline fill="none" stroke="#000000" stroke-width="0.5" stroke-dasharray="16,0" points="1099.57,149.837 1094.87,149.837"/>
<polyline fill="none" stroke="#000000" stroke-width="0.5" stroke-dasharray="16,0" points="157.95,130.881 162.656,130.881"/>
<polyline fill="none" stroke="#000000" stroke-width="0.5" stroke-dasharray="16,0" points="1099.57,130.881 1094.87,130.881"/>
<polyline fill="none" stroke="#000000" stroke-width="0.5" stroke-dasharray="16,0" points="157.95,115.394 162.656,115.394"/>
<polyline fill="none" stroke="#000000" stroke-width="0.5" stroke-dasharray="16,0" points="1099.57,115.394 1094.87,115.394"/>
<polyline fill="none" stroke="#000000" stroke-width="0.5" stroke-dasharray="16,0" points="157.95,102.299 162.656,102.299"/>
<polyline fill="none" stroke="#000000" stroke-width="0.5" stroke-dasharray="16,0" points="1099.57,102.299 1094.87,102.299"/>
<polyline fill="none" stroke="#000000" stroke-width="0.5" stroke-dasharray="16,0" points="157.95,90.9556 162.656,90.9556"/>
<polyline fill="none" stroke="#000000" stroke-width="0.5" stroke-dasharray="16,0" points="1099.57,90.9556 1094.87,90.9556"/>
<polyline fill="none" stroke="#000000" stroke-width="0.5" stroke-dasharray="16,0" points="157.95,80.9501 162.656,80.9501"/>
<polyline fill="none" stroke="#000000" stroke-width="0.5" stroke-dasharray="16,0" points="1099.57,80.9501 1094.87,80.9501"/>
<text fill="#000000" x="628.763" y="62.0001" font-size="14" text-anchor="middle" baseline-shift="0" font-family="Helvetica">User's Total Reputation Distribution on Math Stack Exchange</text>
<polyline fill="none" stroke="#000000" stroke-width="0.5" points="252.436,84.1254 307.706,196.573 337.82,218.651 358.634,268.479 423.205,199.849 451.303,313.115 471.14,364.738 486.486,151.519 534.004,267.94 581.383,335.981 628.694,385.499 675.971,433.652 691.187,560.259 703.618,590.672 738.443,525.196 785.693,550.936 813.331,621.571 832.939,676.7 848.149,726.632 1037.12,623.231"/>
<polygon fill="#000000" points="254.054,85.301 253.054,86.0276 254.436,84.1254"/>
<polygon fill="#000000" points="253.054,86.0276 251.818,86.0276 254.436,84.1254"/>
<polygon fill="#000000" points="251.818,86.0276 250.818,85.301 254.436,84.1254"/>
<polygon fill="#000000" points="250.818,85.301 250.436,84.1254 254.436,84.1254"/>
<polygon fill="#000000" points="250.436,84.1254 250.818,82.9498 254.436,84.1254"/>
<polygon fill="#000000" points="250.818,82.9498 251.818,82.2233 254.436,84.1254"/>
<polygon fill="#000000" points="251.818,82.2233 253.054,82.2233 254.436,84.1254"/>
<polygon fill="#000000" points="253.054,82.2233 254.054,82.9498 254.436,84.1254"/>
<polygon fill="#000000" points="309.324,197.749 308.324,198.475 309.706,196.573"/>
<polygon fill="#000000" points="308.324,198.475 307.088,198.475 309.706,196.573"/>
<polygon fill="#000000" points="307.088,198.475 306.088,197.749 309.706,196.573"/>
<polygon fill="#000000" points="306.088,197.749 305.706,196.573 309.706,196.573"/>
<polygon fill="#000000" points="305.706,196.573 306.088,195.398 309.706,196.573"/>
<polygon fill="#000000" points="306.088,195.398 307.088,194.671 309.706,196.573"/>
<polygon fill="#000000" points="307.088,194.671 308.324,194.671 309.706,196.573"/>
<polygon fill="#000000" points="308.324,194.671 309.324,195.398 309.706,196.573"/>
<polygon fill="#000000" points="339.439,219.827 338.439,220.553 339.82,218.651"/>
<polygon fill="#000000" points="338.439,220.553 337.202,220.553 339.82,218.651"/>
<polygon fill="#000000" points="337.202,220.553 336.202,219.827 339.82,218.651"/>
<polygon fill="#000000" points="336.202,219.827 335.82,218.651 339.82,218.651"/>
<polygon fill="#000000" points="335.82,218.651 336.202,217.476 339.82,218.651"/>
<polygon fill="#000000" points="336.202,217.476 337.202,216.749 339.82,218.651"/>
<polygon fill="#000000" points="337.202,216.749 338.439,216.749 339.82,218.651"/>
<polygon fill="#000000" points="338.439,216.749 339.439,217.476 339.82,218.651"/>
<polygon fill="#000000" points="360.252,269.655 359.252,270.382 360.634,268.479"/>
<polygon fill="#000000" points="359.252,270.382 358.016,270.382 360.634,268.479"/>
<polygon fill="#000000" points="358.016,270.382 357.016,269.655 360.634,268.479"/>
<polygon fill="#000000" points="357.016,269.655 356.634,268.479 360.634,268.479"/>
<polygon fill="#000000" points="356.634,268.479 357.016,267.304 360.634,268.479"/>
<polygon fill="#000000" points="357.016,267.304 358.016,266.577 360.634,268.479"/>
<polygon fill="#000000" points="358.016,266.577 359.252,266.577 360.634,268.479"/>
<polygon fill="#000000" points="359.252,266.577 360.252,267.304 360.634,268.479"/>
<polygon fill="#000000" points="424.823,201.025 423.823,201.752 425.205,199.85"/>
<polygon fill="#000000" points="423.823,201.752 422.587,201.752 425.205,199.85"/>
<polygon fill="#000000" points="422.587,201.752 421.587,201.025 425.205,199.85"/>
<polygon fill="#000000" points="421.587,201.025 421.205,199.85 425.205,199.85"/>
<polygon fill="#000000" points="421.205,199.85 421.587,198.674 425.205,199.85"/>
<polygon fill="#000000" points="421.587,198.674 422.587,197.947 425.205,199.85"/>
<polygon fill="#000000" points="422.587,197.947 423.823,197.947 425.205,199.85"/>
<polygon fill="#000000" points="423.823,197.947 424.823,198.674 425.205,199.85"/>
<polygon fill="#000000" points="452.921,314.291 451.921,315.017 453.303,313.115"/>
<polygon fill="#000000" points="451.921,315.017 450.685,315.017 453.303,313.115"/>
<polygon fill="#000000" points="450.685,315.017 449.685,314.291 453.303,313.115"/>
<polygon fill="#000000" points="449.685,314.291 449.303,313.115 453.303,313.115"/>
<polygon fill="#000000" points="449.303,313.115 449.685,311.94 453.303,313.115"/>
<polygon fill="#000000" points="449.685,311.94 450.685,311.213 453.303,313.115"/>
<polygon fill="#000000" points="450.685,311.213 451.921,311.213 453.303,313.115"/>
<polygon fill="#000000" points="451.921,311.213 452.921,311.94 453.303,313.115"/>
<polygon fill="#000000" points="472.758,365.914 471.758,366.641 473.14,364.738"/>
<polygon fill="#000000" points="471.758,366.641 470.522,366.641 473.14,364.738"/>
<polygon fill="#000000" points="470.522,366.641 469.522,365.914 473.14,364.738"/>
<polygon fill="#000000" points="469.522,365.914 469.14,364.738 473.14,364.738"/>
<polygon fill="#000000" points="469.14,364.738 469.522,363.563 473.14,364.738"/>
<polygon fill="#000000" points="469.522,363.563 470.522,362.836 473.14,364.738"/>
<polygon fill="#000000" points="470.522,362.836 471.758,362.836 473.14,364.738"/>
<polygon fill="#000000" points="471.758,362.836 472.758,363.563 473.14,364.738"/>
<polygon fill="#000000" points="488.104,152.694 487.104,153.421 488.486,151.519"/>
<polygon fill="#000000" points="487.104,153.421 485.868,153.421 488.486,151.519"/>
<polygon fill="#000000" points="485.868,153.421 484.868,152.694 488.486,151.519"/>
<polygon fill="#000000" points="484.868,152.694 484.486,151.519 488.486,151.519"/>
<polygon fill="#000000" points="484.486,151.519 484.868,150.343 488.486,151.519"/>
<polygon fill="#000000" points="484.868,150.343 485.868,149.616 488.486,151.519"/>
<polygon fill="#000000" points="485.868,149.616 487.104,149.616 488.486,151.519"/>
<polygon fill="#000000" points="487.104,149.616 488.104,150.343 488.486,151.519"/>
<polygon fill="#000000" points="535.622,269.116 534.622,269.843 536.004,267.94"/>
<polygon fill="#000000" points="534.622,269.843 533.385,269.843 536.004,267.94"/>
<polygon fill="#000000" points="533.385,269.843 532.385,269.116 536.004,267.94"/>
<polygon fill="#000000" points="532.385,269.116 532.004,267.94 536.004,267.94"/>
<polygon fill="#000000" points="532.004,267.94 532.385,266.765 536.004,267.94"/>
<polygon fill="#000000" points="532.385,266.765 533.385,266.038 536.004,267.94"/>
<polygon fill="#000000" points="533.385,266.038 534.622,266.038 536.004,267.94"/>
<polygon fill="#000000" points="534.622,266.038 535.622,266.765 536.004,267.94"/>
<polygon fill="#000000" points="583.001,337.156 582.001,337.883 583.383,335.981"/>
<polygon fill="#000000" points="582.001,337.883 580.765,337.883 583.383,335.981"/>
<polygon fill="#000000" points="580.765,337.883 579.765,337.156 583.383,335.981"/>
<polygon fill="#000000" points="579.765,337.156 579.383,335.981 583.383,335.981"/>
<polygon fill="#000000" points="579.383,335.981 579.765,334.805 583.383,335.981"/>
<polygon fill="#000000" points="579.765,334.805 580.765,334.079 583.383,335.981"/>
<polygon fill="#000000" points="580.765,334.079 582.001,334.079 583.383,335.981"/>
<polygon fill="#000000" points="582.001,334.079 583.001,334.805 583.383,335.981"/>
<polygon fill="#000000" points="630.312,386.675 629.312,387.401 630.694,385.499"/>
<polygon fill="#000000" points="629.312,387.401 628.076,387.401 630.694,385.499"/>
<polygon fill="#000000" points="628.076,387.401 627.076,386.675 630.694,385.499"/>
<polygon fill="#000000" points="627.076,386.675 626.694,385.499 630.694,385.499"/>
<polygon fill="#000000" points="626.694,385.499 627.076,384.323 630.694,385.499"/>
<polygon fill="#000000" points="627.076,384.323 628.076,383.597 630.694,385.499"/>
<polygon fill="#000000" points="628.076,383.597 629.312,383.597 630.694,385.499"/>
<polygon fill="#000000" points="629.312,383.597 630.312,384.323 630.694,385.499"/>
<polygon fill="#000000" points="677.589,434.828 676.589,435.554 677.971,433.652"/>
<polygon fill="#000000" points="676.589,435.554 675.353,435.554 677.971,433.652"/>
<polygon fill="#000000" points="675.353,435.554 674.353,434.828 677.971,433.652"/>
<polygon fill="#000000" points="674.353,434.828 673.971,433.652 677.971,433.652"/>
<polygon fill="#000000" points="673.971,433.652 674.353,432.477 677.971,433.652"/>
<polygon fill="#000000" points="674.353,432.477 675.353,431.75 677.971,433.652"/>
<polygon fill="#000000" points="675.353,431.75 676.589,431.75 677.971,433.652"/>
<polygon fill="#000000" points="676.589,431.75 677.589,432.477 677.971,433.652"/>
<polygon fill="#000000" points="692.805,561.434 691.805,562.161 693.187,560.259"/>
<polygon fill="#000000" points="691.805,562.161 690.569,562.161 693.187,560.259"/>
<polygon fill="#000000" points="690.569,562.161 689.569,561.434 693.187,560.259"/>
<polygon fill="#000000" points="689.569,561.434 689.187,560.259 693.187,560.259"/>
<polygon fill="#000000" points="689.187,560.259 689.569,559.083 693.187,560.259"/>
<polygon fill="#000000" points="689.569,559.083 690.569,558.356 693.187,560.259"/>
<polygon fill="#000000" points="690.569,558.356 691.805,558.356 693.187,560.259"/>
<polygon fill="#000000" points="691.805,558.356 692.805,559.083 693.187,560.259"/>
<polygon fill="#000000" points="705.236,591.847 704.236,592.574 705.618,590.672"/>
<polygon fill="#000000" points="704.236,592.574 703,592.574 705.618,590.672"/>
<polygon fill="#000000" points="703,592.574 702,591.847 705.618,590.672"/>
<polygon fill="#000000" points="702,591.847 701.618,590.672 705.618,590.672"/>
<polygon fill="#000000" points="701.618,590.672 702,589.496 705.618,590.672"/>
<polygon fill="#000000" points="702,589.496 703,588.769 705.618,590.672"/>
<polygon fill="#000000" points="703,588.769 704.236,588.769 705.618,590.672"/>
<polygon fill="#000000" points="704.236,588.769 705.236,589.496 705.618,590.672"/>
<polygon fill="#000000" points="740.062,526.372 739.062,527.098 740.443,525.196"/>
<polygon fill="#000000" points="739.062,527.098 737.825,527.098 740.443,525.196"/>
<polygon fill="#000000" points="737.825,527.098 736.825,526.372 740.443,525.196"/>
<polygon fill="#000000" points="736.825,526.372 736.443,525.196 740.443,525.196"/>
<polygon fill="#000000" points="736.443,525.196 736.825,524.02 740.443,525.196"/>
<polygon fill="#000000" points="736.825,524.02 737.825,523.294 740.443,525.196"/>
<polygon fill="#000000" points="737.825,523.294 739.062,523.294 740.443,525.196"/>
<polygon fill="#000000" points="739.062,523.294 740.062,524.02 740.443,525.196"/>
<polygon fill="#000000" points="787.311,552.112 786.311,552.839 787.693,550.936"/>
<polygon fill="#000000" points="786.311,552.839 785.075,552.839 787.693,550.936"/>
<polygon fill="#000000" points="785.075,552.839 784.075,552.112 787.693,550.936"/>
<polygon fill="#000000" points="784.075,552.112 783.693,550.936 787.693,550.936"/>
<polygon fill="#000000" points="783.693,550.936 784.075,549.761 787.693,550.936"/>
<polygon fill="#000000" points="784.075,549.761 785.075,549.034 787.693,550.936"/>
<polygon fill="#000000" points="785.075,549.034 786.311,549.034 787.693,550.936"/>
<polygon fill="#000000" points="786.311,549.034 787.311,549.761 787.693,550.936"/>
<polygon fill="#000000" points="814.949,622.747 813.949,623.473 815.331,621.571"/>
<polygon fill="#000000" points="813.949,623.473 812.713,623.473 815.331,621.571"/>
<polygon fill="#000000" points="812.713,623.473 811.713,622.747 815.331,621.571"/>
<polygon fill="#000000" points="811.713,622.747 811.331,621.571 815.331,621.571"/>
<polygon fill="#000000" points="811.331,621.571 811.713,620.396 815.331,621.571"/>
<polygon fill="#000000" points="811.713,620.396 812.713,619.669 815.331,621.571"/>
<polygon fill="#000000" points="812.713,619.669 813.949,619.669 815.331,621.571"/>
<polygon fill="#000000" points="813.949,619.669 814.949,620.396 815.331,621.571"/>
<polygon fill="#000000" points="834.558,677.876 833.558,678.602 834.94,676.7"/>
<polygon fill="#000000" points="833.558,678.602 832.321,678.602 834.94,676.7"/>
<polygon fill="#000000" points="832.321,678.602 831.321,677.876 834.94,676.7"/>
<polygon fill="#000000" points="831.321,677.876 830.94,676.7 834.94,676.7"/>
<polygon fill="#000000" points="830.94,676.7 831.321,675.525 834.94,676.7"/>
<polygon fill="#000000" points="831.321,675.525 832.321,674.798 834.94,676.7"/>
<polygon fill="#000000" points="832.321,674.798 833.558,674.798 834.94,676.7"/>
<polygon fill="#000000" points="833.558,674.798 834.558,675.525 834.94,676.7"/>
<polygon fill="#000000" points="849.767,727.807 848.767,728.534 850.149,726.632"/>
<polygon fill="#000000" points="848.767,728.534 847.531,728.534 850.149,726.632"/>
<polygon fill="#000000" points="847.531,728.534 846.531,727.807 850.149,726.632"/>
<polygon fill="#000000" points="846.531,727.807 846.149,726.632 850.149,726.632"/>
<polygon fill="#000000" points="846.149,726.632 846.531,725.456 850.149,726.632"/>
<polygon fill="#000000" points="846.531,725.456 847.531,724.73 850.149,726.632"/>
<polygon fill="#000000" points="847.531,724.73 848.767,724.73 850.149,726.632"/>
<polygon fill="#000000" points="848.767,724.73 849.767,725.456 850.149,726.632"/>
<polygon fill="#000000" points="1038.74,624.407 1037.74,625.134 1039.12,623.231"/>
<polygon fill="#000000" points="1037.74,625.134 1036.51,625.134 1039.12,623.231"/>
<polygon fill="#000000" points="1036.51,625.134 1035.51,624.407 1039.12,623.231"/>
<polygon fill="#000000" points="1035.51,624.407 1035.12,623.231 1039.12,623.231"/>
<polygon fill="#000000" points="1035.12,623.231 1035.51,622.056 1039.12,623.231"/>
<polygon fill="#000000" points="1035.51,622.056 1036.51,621.329 1039.12,623.231"/>
<polygon fill="#000000" points="1036.51,621.329 1037.74,621.329 1039.12,623.231"/>
<polygon fill="#000000" points="1037.74,621.329 1038.74,622.056 1039.12,623.231"/>
<text fill="#000000" x="252.436" y="84.1254" font-size="12" text-anchor="start" baseline-shift="-6" font-family="Helvetica">(4,86698)</text>
<text fill="#000000" x="307.706" y="196.573" font-size="12" text-anchor="start" baseline-shift="-6" font-family="Helvetica">(9,23074)</text>
<text fill="#000000" x="337.82" y="218.651" font-size="12" text-anchor="start" baseline-shift="-6" font-family="Helvetica">(14,17793)</text>
<text fill="#000000" x="358.634" y="268.479" font-size="12" text-anchor="start" baseline-shift="-6" font-family="Helvetica">(19,9897)</text>
<text fill="#000000" x="423.205" y="199.85" font-size="12" text-anchor="start" baseline-shift="-6" font-family="Helvetica">(49,22201)</text>
<text fill="#000000" x="451.303" y="313.115" font-size="12" text-anchor="start" baseline-shift="-6" font-family="Helvetica">(74,5852)</text>
<text fill="#000000" x="471.14" y="364.739" font-size="12" text-anchor="start" baseline-shift="-6" font-family="Helvetica">(99,3187)</text>
<text fill="#000000" x="486.486" y="151.519" font-size="12" text-anchor="start" baseline-shift="-6" font-family="Helvetica">(124,39216)</text>
<text fill="#000000" x="534.004" y="267.94" font-size="12" text-anchor="start" baseline-shift="-6" font-family="Helvetica">(249,9960)</text>
<text fill="#000000" x="581.383" y="335.981" font-size="12" text-anchor="start" baseline-shift="-6" font-family="Helvetica">(499,4471)</text>
<text fill="#000000" x="628.694" y="385.499" font-size="12" text-anchor="start" baseline-shift="-6" font-family="Helvetica">(999,2496)</text>
<text fill="#000000" x="675.971" y="433.652" font-size="12" text-anchor="start" baseline-shift="-6" font-family="Helvetica">(1999,1416)</text>
<text fill="#000000" x="691.187" y="560.259" font-size="12" text-anchor="start" baseline-shift="-6" font-family="Helvetica">(2499,319)</text>
<text fill="#000000" x="703.618" y="590.672" font-size="12" text-anchor="start" baseline-shift="-6" font-family="Helvetica">(2999,223)</text>
<text fill="#000000" x="738.443" y="525.196" font-size="12" text-anchor="start" baseline-shift="-6" font-family="Helvetica">(4999,482)</text>
<text fill="#000000" x="785.693" y="550.936" font-size="12" text-anchor="start" baseline-shift="-6" font-family="Helvetica">(9999,356)</text>
<text fill="#000000" x="813.331" y="621.571" font-size="12" text-anchor="start" baseline-shift="-6" font-family="Helvetica">(14999,155)</text>
<text fill="#000000" x="832.94" y="676.7" font-size="12" text-anchor="start" baseline-shift="-6" font-family="Helvetica">(19999,81)</text>
<text fill="#000000" x="848.149" y="726.632" font-size="12" text-anchor="start" baseline-shift="-6" font-family="Helvetica">(24999,45)</text>
<text fill="#000000" x="1037.12" y="623.231" font-size="12" text-anchor="start" baseline-shift="-6" font-family="Helvetica">(400000,152)</text>
</g>
</svg>
